<svg width="96" height="40" viewBox="0 0 96 40" fill="none" xmlns="http://www.w3.org/2000/svg">
<rect width="96" height="40" fill="white"/>
<path d="M23.5 11L21.25 13.25L25.75 17.75L28 15.5L23.5 11ZM19 15.5L10 24.5V29H14.5L23.5 20L19 15.5Z" fill="#4F46E5"/>
<path d="M45.7778 16H58.2222H45.7778ZM45.7778 16C45.3063 16 44.8541 15.7893 44.5207 15.4142C44.1873 15.0391 44 14.5304 44 14C44 13.4696 44.1873 12.9609 44.5207 12.5858C44.8541 12.2107 45.3063 12 45.7778 12H58.2222C58.6937 12 59.1459 12.2107 59.4793 12.5858C59.8127 12.9609 60 13.4696 60 14C60 14.5304 59.8127 15.0391 59.4793 15.4142C59.1459 15.7893 58.6937 16 58.2222 16M45.7778 16V26C45.7778 26.5304 45.9651 27.0391 46.2985 27.4142C46.6319 27.7893 47.0841 28 47.5556 28H56.4444C56.9159 28 57.3681 27.7893 57.7015 27.4142C58.0349 27.0391 58.2222 26.5304 58.2222 26V16M50.2222 20H53.7778H50.2222Z" fill="white"/>
<path d="M45.7778 16H58.2222M45.7778 16C45.3063 16 44.8541 15.7893 44.5207 15.4142C44.1873 15.0391 44 14.5304 44 14C44 13.4696 44.1873 12.9609 44.5207 12.5858C44.8541 12.2107 45.3063 12 45.7778 12H58.2222C58.6937 12 59.1459 12.2107 59.4793 12.5858C59.8127 12.9609 60 13.4696 60 14C60 14.5304 59.8127 15.0391 59.4793 15.4142C59.1459 15.7893 58.6937 16 58.2222 16M45.7778 16V26C45.7778 26.5304 45.9651 27.0391 46.2985 27.4142C46.6319 27.7893 47.0841 28 47.5556 28H56.4444C56.9159 28 57.3681 27.7893 57.7015 27.4142C58.0349 27.0391 58.2222 26.5304 58.2222 26V16M50.2222 20H53.7778" stroke="#D82020" stroke-width="2" stroke-linecap="round" stroke-linejoin="round"/>
</svg>
