<svg width="40" height="40" viewBox="0 0 40 40" fill="none" xmlns="http://www.w3.org/2000/svg">
<path d="M10.8875 1.305C11.2044 1.2092 11.5464 1.24305 11.8384 1.39913C12.1304 1.5552 12.3486 1.82075 12.445 2.1375L13.1725 4.5275C15.2023 3.2011 17.5753 2.49642 20 2.5C22.5175 2.5 24.865 3.245 26.8275 4.5275L27.5525 2.1375C27.5992 1.97934 27.6767 1.83199 27.7806 1.70393C27.8845 1.57587 28.0127 1.46963 28.1578 1.39134C28.303 1.31304 28.4622 1.26424 28.6262 1.24773C28.7903 1.23123 28.956 1.24735 29.1138 1.29517C29.2717 1.343 29.4185 1.42158 29.5458 1.52638C29.6731 1.63118 29.7784 1.76014 29.8557 1.90583C29.9329 2.05152 29.9806 2.21105 29.9959 2.37524C30.0113 2.53943 29.9939 2.70503 29.945 2.8625L28.92 6.2425C31.2181 8.57761 32.5042 11.7237 32.5 15H33.75C34.0815 15 34.3995 14.8683 34.6339 14.6339C34.8683 14.3995 35 14.0815 35 13.75V12.5C35 12.1685 35.1317 11.8505 35.3661 11.6161C35.6005 11.3817 35.9185 11.25 36.25 11.25C36.5815 11.25 36.8995 11.3817 37.1339 11.6161C37.3683 11.8505 37.5 12.1685 37.5 12.5V13.75C37.5 14.7446 37.1049 15.6984 36.4017 16.4016C35.6984 17.1049 34.7446 17.5 33.75 17.5H32.5V20H36.25C36.5815 20 36.8995 20.1317 37.1339 20.3661C37.3683 20.6005 37.5 20.9185 37.5 21.25C37.5 21.5815 37.3683 21.8995 37.1339 22.1339C36.8995 22.3683 36.5815 22.5 36.25 22.5H32.5V25H33.75C34.7446 25 35.6984 25.3951 36.4017 26.0983C37.1049 26.8016 37.5 27.7554 37.5 28.75V30C37.5 30.3315 37.3683 30.6495 37.1339 30.8839C36.8995 31.1183 36.5815 31.25 36.25 31.25C35.9185 31.25 35.6005 31.1183 35.3661 30.8839C35.1317 30.6495 35 30.3315 35 30V28.75C35 28.4185 34.8683 28.1005 34.6339 27.8661C34.3995 27.6317 34.0815 27.5 33.75 27.5H32.5C32.5 30.8152 31.183 33.9946 28.8388 36.3388C26.4946 38.683 23.3152 40 20 40C16.6848 40 13.5054 38.683 11.1612 36.3388C8.81696 33.9946 7.5 30.8152 7.5 27.5H6.25C5.91848 27.5 5.60054 27.6317 5.36612 27.8661C5.1317 28.1005 5 28.4185 5 28.75V30C5 30.3315 4.8683 30.6495 4.63388 30.8839C4.39946 31.1183 4.08152 31.25 3.75 31.25C3.41848 31.25 3.10054 31.1183 2.86612 30.8839C2.6317 30.6495 2.5 30.3315 2.5 30V28.75C2.5 27.7554 2.89509 26.8016 3.59835 26.0983C4.30161 25.3951 5.25544 25 6.25 25H7.5V22.5H3.75C3.41848 22.5 3.10054 22.3683 2.86612 22.1339C2.6317 21.8995 2.5 21.5815 2.5 21.25C2.5 20.9185 2.6317 20.6005 2.86612 20.3661C3.10054 20.1317 3.41848 20 3.75 20H7.5V17.5H6.25C5.25544 17.5 4.30161 17.1049 3.59835 16.4016C2.89509 15.6984 2.5 14.7446 2.5 13.75V12.5C2.5 12.1685 2.6317 11.8505 2.86612 11.6161C3.10054 11.3817 3.41848 11.25 3.75 11.25C4.08152 11.25 4.39946 11.3817 4.63388 11.6161C4.8683 11.8505 5 12.1685 5 12.5V13.75C5 14.0815 5.1317 14.3995 5.36612 14.6339C5.60054 14.8683 5.91848 15 6.25 15H7.5C7.5 11.59 8.8675 8.4975 11.08 6.2425L10.055 2.8625C9.9592 2.54557 9.99305 2.20357 10.1491 1.91157C10.3052 1.61957 10.5708 1.40142 10.8875 1.305ZM10 17.5V27.5C9.99916 29.9363 10.8877 32.289 12.4989 34.1165C14.11 35.944 16.3328 37.1205 18.75 37.425V17.5H10ZM21.25 17.5V37.425C23.6672 37.1205 25.89 35.944 27.5011 34.1165C29.1123 32.289 30.0008 29.9363 30 27.5V17.5H21.25ZM30 15C30.0017 13.5924 29.7055 12.2004 29.1306 10.9154C28.5558 9.63054 27.7155 8.48188 26.665 7.545C24.8339 5.90257 22.4597 4.996 20 5C17.5394 4.99538 15.1642 5.902 13.3325 7.545C12.2824 8.4821 11.4426 9.63087 10.8682 10.9158C10.2938 12.2007 9.99796 13.5926 10 15H30Z" fill="#4F46E5"/>
</svg>
